<?xml version="1.0" standalone="no"?>
<!DOCTYPE svg PUBLIC "-//W3C//DTD SVG 20010904//EN"
 "http://www.w3.org/TR/2001/REC-SVG-20010904/DTD/svg10.dtd">
<svg version="1.0" xmlns="http://www.w3.org/2000/svg"
 width="337.000000pt" height="197.000000pt" viewBox="0 0 337.000000 197.000000"
 preserveAspectRatio="xMidYMid meet">
<metadata>
Created by potrace 1.16, written by Peter Selinger 2001-2019
</metadata>
<g transform="translate(0.000000,197.000000) scale(0.100000,-0.100000)"
fill="#000000" stroke="none">
<path d="M1510 1915 c-205 -46 -483 -178 -670 -318 -391 -295 -661 -630 -771
-960 -26 -76 -31 -108 -32 -188 -1 -89 2 -102 31 -162 89 -180 312 -214 612
-93 189 76 337 177 462 317 94 106 105 138 62 188 -21 26 -33 31 -68 31 -47 0
-64 -14 -85 -67 -16 -39 -125 -145 -207 -201 -84 -56 -203 -114 -304 -148
-150 -50 -289 -34 -325 37 -39 75 -7 242 77 398 142 266 330 476 633 709 6 4
28 21 50 38 114 89 367 208 528 249 117 29 266 33 326 9 42 -16 70 -50 54 -64
-4 -4 -91 -12 -193 -19 -253 -16 -379 -30 -401 -44 -25 -16 -40 -62 -30 -90
20 -52 73 -75 135 -58 37 11 397 42 404 35 16 -13 -211 -219 -341 -308 -93
-64 -257 -126 -257 -98 0 16 62 102 87 122 16 12 41 20 64 20 42 0 78 26 80
58 4 65 -20 93 -90 100 -102 9 -205 -69 -276 -211 -55 -109 -46 -186 24 -230
30 -18 50 -22 121 -22 74 0 95 5 162 33 110 47 182 94 315 204 144 118 231
203 289 285 l44 61 106 7 c58 4 107 5 110 2 3 -2 -50 -54 -118 -114 -166 -149
-506 -497 -606 -622 -213 -265 -342 -515 -342 -664 0 -48 4 -58 26 -76 49 -39
117 -17 128 41 22 113 33 149 72 229 100 205 232 375 524 673 270 275 548 525
625 560 37 17 466 42 547 32 52 -7 57 -10 63 -37 8 -33 48 -69 79 -69 80 0
127 132 71 198 -36 43 -102 62 -235 69 -116 5 -503 -16 -765 -42 -77 -8 -164
-15 -194 -17 l-54 -3 -12 46 c-17 66 -56 111 -128 150 -61 34 -64 34 -202 36
-93 2 -162 -3 -205 -12z"/>
</g>
</svg>
